<mxfile host="app.diagrams.net" agent="Mozilla/5.0 (Windows NT 10.0; Win64; x64) AppleWebKit/537.36 (KHTML, like Gecko) Chrome/129.0.0.0 Safari/537.36 Edg/129.0.0.0" version="24.7.12">
  <diagram id="R2lEEEUBdFMjLlhIrx00" name="Page-1">
    <mxGraphModel dx="1226" dy="680" grid="1" gridSize="10" guides="1" tooltips="1" connect="1" arrows="1" fold="1" page="1" pageScale="1" pageWidth="850" pageHeight="1100" math="0" shadow="0" extFonts="Permanent Marker^https://fonts.googleapis.com/css?family=Permanent+Marker">
      <root>
        <mxCell id="0" />
        <mxCell id="1" parent="0" />
        <mxCell id="KuEMhPUWI6Ybn1n7uqaw-1" value="Medicamento" style="whiteSpace=wrap;html=1;align=center;fillColor=#f9f7ed;strokeColor=#36393d;" vertex="1" parent="1">
          <mxGeometry x="710" y="340" width="100" height="40" as="geometry" />
        </mxCell>
        <mxCell id="KuEMhPUWI6Ybn1n7uqaw-2" value="Paciente" style="whiteSpace=wrap;html=1;align=center;fillColor=#f9f7ed;strokeColor=#36393d;" vertex="1" parent="1">
          <mxGeometry x="400" y="570" width="100" height="40" as="geometry" />
        </mxCell>
        <mxCell id="KuEMhPUWI6Ybn1n7uqaw-3" value="Medico" style="whiteSpace=wrap;html=1;align=center;fillColor=#f9f7ed;strokeColor=#36393d;" vertex="1" parent="1">
          <mxGeometry x="400" y="160" width="100" height="40" as="geometry" />
        </mxCell>
        <mxCell id="KuEMhPUWI6Ybn1n7uqaw-4" value="Especialidad" style="whiteSpace=wrap;html=1;align=center;fillColor=#f9f7ed;strokeColor=#36393d;" vertex="1" parent="1">
          <mxGeometry x="90" y="160" width="100" height="40" as="geometry" />
        </mxCell>
        <mxCell id="KuEMhPUWI6Ybn1n7uqaw-5" value="Consulta" style="whiteSpace=wrap;html=1;align=center;fillColor=#f9f7ed;strokeColor=#36393d;" vertex="1" parent="1">
          <mxGeometry x="400" y="340" width="100" height="40" as="geometry" />
        </mxCell>
        <mxCell id="KuEMhPUWI6Ybn1n7uqaw-7" value="Realizo" style="shape=rhombus;perimeter=rhombusPerimeter;whiteSpace=wrap;html=1;align=center;fillColor=#cce5ff;strokeColor=#36393d;" vertex="1" parent="1">
          <mxGeometry x="390" y="240" width="120" height="60" as="geometry" />
        </mxCell>
        <mxCell id="KuEMhPUWI6Ybn1n7uqaw-8" value="Tiene" style="shape=rhombus;perimeter=rhombusPerimeter;whiteSpace=wrap;html=1;align=center;fillColor=#cce5ff;strokeColor=#36393d;" vertex="1" parent="1">
          <mxGeometry x="230" y="150" width="120" height="60" as="geometry" />
        </mxCell>
        <mxCell id="KuEMhPUWI6Ybn1n7uqaw-9" value="Recibir" style="shape=rhombus;perimeter=rhombusPerimeter;whiteSpace=wrap;html=1;align=center;fillColor=#cce5ff;strokeColor=#36393d;" vertex="1" parent="1">
          <mxGeometry x="390" y="460" width="120" height="60" as="geometry" />
        </mxCell>
        <mxCell id="KuEMhPUWI6Ybn1n7uqaw-10" value="Recetar" style="shape=rhombus;perimeter=rhombusPerimeter;whiteSpace=wrap;html=1;align=center;fillColor=#cce5ff;strokeColor=#36393d;" vertex="1" parent="1">
          <mxGeometry x="540" y="330" width="120" height="60" as="geometry" />
        </mxCell>
        <mxCell id="KuEMhPUWI6Ybn1n7uqaw-11" value="" style="endArrow=none;html=1;rounded=0;exitX=1;exitY=0.5;exitDx=0;exitDy=0;entryX=0;entryY=0.5;entryDx=0;entryDy=0;" edge="1" parent="1" source="KuEMhPUWI6Ybn1n7uqaw-4" target="KuEMhPUWI6Ybn1n7uqaw-8">
          <mxGeometry relative="1" as="geometry">
            <mxPoint x="340" y="340" as="sourcePoint" />
            <mxPoint x="500" y="340" as="targetPoint" />
          </mxGeometry>
        </mxCell>
        <mxCell id="KuEMhPUWI6Ybn1n7uqaw-12" value="" style="endArrow=none;html=1;rounded=0;exitX=0.5;exitY=1;exitDx=0;exitDy=0;" edge="1" parent="1" source="KuEMhPUWI6Ybn1n7uqaw-3" target="KuEMhPUWI6Ybn1n7uqaw-7">
          <mxGeometry relative="1" as="geometry">
            <mxPoint x="340" y="340" as="sourcePoint" />
            <mxPoint x="450" y="230" as="targetPoint" />
          </mxGeometry>
        </mxCell>
        <mxCell id="KuEMhPUWI6Ybn1n7uqaw-13" value="" style="endArrow=none;html=1;rounded=0;exitX=1;exitY=0.5;exitDx=0;exitDy=0;entryX=0;entryY=0.5;entryDx=0;entryDy=0;" edge="1" parent="1" source="KuEMhPUWI6Ybn1n7uqaw-8" target="KuEMhPUWI6Ybn1n7uqaw-3">
          <mxGeometry relative="1" as="geometry">
            <mxPoint x="340" y="340" as="sourcePoint" />
            <mxPoint x="500" y="340" as="targetPoint" />
          </mxGeometry>
        </mxCell>
        <mxCell id="KuEMhPUWI6Ybn1n7uqaw-16" value="" style="endArrow=none;html=1;rounded=0;exitX=1;exitY=0.5;exitDx=0;exitDy=0;entryX=0;entryY=0.5;entryDx=0;entryDy=0;" edge="1" parent="1" source="KuEMhPUWI6Ybn1n7uqaw-5" target="KuEMhPUWI6Ybn1n7uqaw-10">
          <mxGeometry relative="1" as="geometry">
            <mxPoint x="340" y="340" as="sourcePoint" />
            <mxPoint x="500" y="340" as="targetPoint" />
          </mxGeometry>
        </mxCell>
        <mxCell id="KuEMhPUWI6Ybn1n7uqaw-17" value="" style="endArrow=none;html=1;rounded=0;exitX=0.5;exitY=0;exitDx=0;exitDy=0;entryX=0.5;entryY=1;entryDx=0;entryDy=0;" edge="1" parent="1" source="KuEMhPUWI6Ybn1n7uqaw-2" target="KuEMhPUWI6Ybn1n7uqaw-9">
          <mxGeometry relative="1" as="geometry">
            <mxPoint x="350" y="360" as="sourcePoint" />
            <mxPoint x="500" y="340" as="targetPoint" />
          </mxGeometry>
        </mxCell>
        <mxCell id="KuEMhPUWI6Ybn1n7uqaw-18" value="" style="endArrow=none;html=1;rounded=0;exitX=0.5;exitY=1;exitDx=0;exitDy=0;entryX=0.5;entryY=0;entryDx=0;entryDy=0;" edge="1" parent="1" source="KuEMhPUWI6Ybn1n7uqaw-5" target="KuEMhPUWI6Ybn1n7uqaw-9">
          <mxGeometry relative="1" as="geometry">
            <mxPoint x="380" y="410" as="sourcePoint" />
            <mxPoint x="500" y="340" as="targetPoint" />
          </mxGeometry>
        </mxCell>
        <mxCell id="KuEMhPUWI6Ybn1n7uqaw-19" value="" style="endArrow=none;html=1;rounded=0;exitX=0.5;exitY=1;exitDx=0;exitDy=0;entryX=0.5;entryY=0;entryDx=0;entryDy=0;" edge="1" parent="1" source="KuEMhPUWI6Ybn1n7uqaw-7" target="KuEMhPUWI6Ybn1n7uqaw-5">
          <mxGeometry relative="1" as="geometry">
            <mxPoint x="340" y="340" as="sourcePoint" />
            <mxPoint x="500" y="340" as="targetPoint" />
          </mxGeometry>
        </mxCell>
        <mxCell id="KuEMhPUWI6Ybn1n7uqaw-20" value="" style="endArrow=none;html=1;rounded=0;exitX=0;exitY=0.5;exitDx=0;exitDy=0;entryX=1;entryY=0.5;entryDx=0;entryDy=0;" edge="1" parent="1" source="KuEMhPUWI6Ybn1n7uqaw-1" target="KuEMhPUWI6Ybn1n7uqaw-10">
          <mxGeometry relative="1" as="geometry">
            <mxPoint x="340" y="340" as="sourcePoint" />
            <mxPoint x="500" y="340" as="targetPoint" />
          </mxGeometry>
        </mxCell>
        <mxCell id="KuEMhPUWI6Ybn1n7uqaw-21" value="Nombre" style="ellipse;whiteSpace=wrap;html=1;align=center;fillColor=#ffcccc;strokeColor=#36393d;" vertex="1" parent="1">
          <mxGeometry x="400" y="50" width="100" height="40" as="geometry" />
        </mxCell>
        <mxCell id="KuEMhPUWI6Ybn1n7uqaw-22" value="Nombre" style="ellipse;whiteSpace=wrap;html=1;align=center;fillColor=#ffcccc;strokeColor=#36393d;" vertex="1" parent="1">
          <mxGeometry x="90" y="40" width="100" height="40" as="geometry" />
        </mxCell>
        <mxCell id="KuEMhPUWI6Ybn1n7uqaw-23" value="Fecha" style="ellipse;whiteSpace=wrap;html=1;align=center;fillColor=#ffcccc;strokeColor=#36393d;" vertex="1" parent="1">
          <mxGeometry x="250" y="340" width="100" height="40" as="geometry" />
        </mxCell>
        <mxCell id="KuEMhPUWI6Ybn1n7uqaw-24" value="Cantidad" style="ellipse;whiteSpace=wrap;html=1;align=center;fillColor=#ffcccc;strokeColor=#36393d;" vertex="1" parent="1">
          <mxGeometry x="800" y="240" width="100" height="40" as="geometry" />
        </mxCell>
        <mxCell id="KuEMhPUWI6Ybn1n7uqaw-26" value="Dosis" style="ellipse;whiteSpace=wrap;html=1;align=center;fillColor=#ffcccc;strokeColor=#36393d;" vertex="1" parent="1">
          <mxGeometry x="790" y="420" width="100" height="40" as="geometry" />
        </mxCell>
        <mxCell id="KuEMhPUWI6Ybn1n7uqaw-27" value="Descripcion" style="ellipse;whiteSpace=wrap;html=1;align=center;fillColor=#ffcccc;strokeColor=#36393d;" vertex="1" parent="1">
          <mxGeometry x="890" y="290" width="100" height="40" as="geometry" />
        </mxCell>
        <mxCell id="KuEMhPUWI6Ybn1n7uqaw-29" value="Nombre" style="ellipse;whiteSpace=wrap;html=1;align=center;fillColor=#ffcccc;strokeColor=#36393d;" vertex="1" parent="1">
          <mxGeometry x="580" y="640" width="100" height="40" as="geometry" />
        </mxCell>
        <mxCell id="KuEMhPUWI6Ybn1n7uqaw-30" value="Apellido" style="ellipse;whiteSpace=wrap;html=1;align=center;fillColor=#ffcccc;strokeColor=#36393d;" vertex="1" parent="1">
          <mxGeometry x="530" y="680" width="100" height="40" as="geometry" />
        </mxCell>
        <mxCell id="KuEMhPUWI6Ybn1n7uqaw-31" value="Num_Identificacion" style="ellipse;whiteSpace=wrap;html=1;align=center;fillColor=#ffcccc;strokeColor=#36393d;" vertex="1" parent="1">
          <mxGeometry x="380" y="690" width="120" height="40" as="geometry" />
        </mxCell>
        <mxCell id="KuEMhPUWI6Ybn1n7uqaw-32" value="Edad" style="ellipse;whiteSpace=wrap;html=1;align=center;fillColor=#ffcccc;strokeColor=#36393d;" vertex="1" parent="1">
          <mxGeometry x="280" y="680" width="100" height="40" as="geometry" />
        </mxCell>
        <mxCell id="KuEMhPUWI6Ybn1n7uqaw-33" value="Direccion" style="ellipse;whiteSpace=wrap;html=1;align=center;fillColor=#ffcccc;strokeColor=#36393d;" vertex="1" parent="1">
          <mxGeometry x="220" y="610" width="100" height="40" as="geometry" />
        </mxCell>
        <mxCell id="KuEMhPUWI6Ybn1n7uqaw-34" value="Nombre" style="ellipse;whiteSpace=wrap;html=1;align=center;fillColor=#ffcccc;strokeColor=#36393d;" vertex="1" parent="1">
          <mxGeometry x="890" y="370" width="100" height="40" as="geometry" />
        </mxCell>
        <mxCell id="KuEMhPUWI6Ybn1n7uqaw-48" value="" style="endArrow=none;html=1;rounded=0;exitX=1;exitY=0.5;exitDx=0;exitDy=0;entryX=0;entryY=0.5;entryDx=0;entryDy=0;" edge="1" parent="1" source="KuEMhPUWI6Ybn1n7uqaw-23" target="KuEMhPUWI6Ybn1n7uqaw-5">
          <mxGeometry relative="1" as="geometry">
            <mxPoint x="300" y="350" as="sourcePoint" />
            <mxPoint x="460" y="350" as="targetPoint" />
          </mxGeometry>
        </mxCell>
        <mxCell id="KuEMhPUWI6Ybn1n7uqaw-49" value="" style="endArrow=none;html=1;rounded=0;entryX=0.5;entryY=1;entryDx=0;entryDy=0;fillColor=#ffcccc;strokeColor=#36393d;" edge="1" parent="1" source="KuEMhPUWI6Ybn1n7uqaw-29" target="KuEMhPUWI6Ybn1n7uqaw-2">
          <mxGeometry relative="1" as="geometry">
            <mxPoint x="300" y="350" as="sourcePoint" />
            <mxPoint x="460" y="350" as="targetPoint" />
          </mxGeometry>
        </mxCell>
        <mxCell id="KuEMhPUWI6Ybn1n7uqaw-50" value="" style="endArrow=none;html=1;rounded=0;entryX=0.5;entryY=1;entryDx=0;entryDy=0;fillColor=#ffcccc;strokeColor=#36393d;" edge="1" parent="1" source="KuEMhPUWI6Ybn1n7uqaw-30" target="KuEMhPUWI6Ybn1n7uqaw-2">
          <mxGeometry relative="1" as="geometry">
            <mxPoint x="300" y="350" as="sourcePoint" />
            <mxPoint x="460" y="350" as="targetPoint" />
          </mxGeometry>
        </mxCell>
        <mxCell id="KuEMhPUWI6Ybn1n7uqaw-51" value="" style="endArrow=none;html=1;rounded=0;entryX=0.5;entryY=1;entryDx=0;entryDy=0;fillColor=#ffcccc;strokeColor=#36393d;" edge="1" parent="1" source="KuEMhPUWI6Ybn1n7uqaw-31" target="KuEMhPUWI6Ybn1n7uqaw-2">
          <mxGeometry relative="1" as="geometry">
            <mxPoint x="300" y="350" as="sourcePoint" />
            <mxPoint x="460" y="350" as="targetPoint" />
          </mxGeometry>
        </mxCell>
        <mxCell id="KuEMhPUWI6Ybn1n7uqaw-52" value="" style="endArrow=none;html=1;rounded=0;entryX=0.5;entryY=1;entryDx=0;entryDy=0;fillColor=#ffcccc;strokeColor=#36393d;" edge="1" parent="1" source="KuEMhPUWI6Ybn1n7uqaw-32" target="KuEMhPUWI6Ybn1n7uqaw-2">
          <mxGeometry relative="1" as="geometry">
            <mxPoint x="300" y="350" as="sourcePoint" />
            <mxPoint x="460" y="350" as="targetPoint" />
          </mxGeometry>
        </mxCell>
        <mxCell id="KuEMhPUWI6Ybn1n7uqaw-53" value="" style="endArrow=none;html=1;rounded=0;entryX=0.5;entryY=1;entryDx=0;entryDy=0;fillColor=#ffcccc;strokeColor=#36393d;" edge="1" parent="1" source="KuEMhPUWI6Ybn1n7uqaw-33" target="KuEMhPUWI6Ybn1n7uqaw-2">
          <mxGeometry relative="1" as="geometry">
            <mxPoint x="300" y="350" as="sourcePoint" />
            <mxPoint x="460" y="350" as="targetPoint" />
          </mxGeometry>
        </mxCell>
        <mxCell id="KuEMhPUWI6Ybn1n7uqaw-54" value="" style="endArrow=none;html=1;rounded=0;exitX=0.5;exitY=0;exitDx=0;exitDy=0;entryX=1;entryY=0.5;entryDx=0;entryDy=0;fillColor=#ffcccc;strokeColor=#36393d;" edge="1" parent="1" source="KuEMhPUWI6Ybn1n7uqaw-26" target="KuEMhPUWI6Ybn1n7uqaw-1">
          <mxGeometry relative="1" as="geometry">
            <mxPoint x="300" y="350" as="sourcePoint" />
            <mxPoint x="460" y="350" as="targetPoint" />
          </mxGeometry>
        </mxCell>
        <mxCell id="KuEMhPUWI6Ybn1n7uqaw-55" value="" style="endArrow=none;html=1;rounded=0;exitX=0;exitY=0.5;exitDx=0;exitDy=0;entryX=1;entryY=0.5;entryDx=0;entryDy=0;fillColor=#ffcccc;strokeColor=#36393d;" edge="1" parent="1" source="KuEMhPUWI6Ybn1n7uqaw-34" target="KuEMhPUWI6Ybn1n7uqaw-1">
          <mxGeometry relative="1" as="geometry">
            <mxPoint x="300" y="350" as="sourcePoint" />
            <mxPoint x="460" y="350" as="targetPoint" />
          </mxGeometry>
        </mxCell>
        <mxCell id="KuEMhPUWI6Ybn1n7uqaw-56" value="" style="endArrow=none;html=1;rounded=0;exitX=0;exitY=0.5;exitDx=0;exitDy=0;entryX=1;entryY=0.5;entryDx=0;entryDy=0;fillColor=#ffcccc;strokeColor=#36393d;" edge="1" parent="1" source="KuEMhPUWI6Ybn1n7uqaw-27" target="KuEMhPUWI6Ybn1n7uqaw-1">
          <mxGeometry relative="1" as="geometry">
            <mxPoint x="300" y="350" as="sourcePoint" />
            <mxPoint x="460" y="350" as="targetPoint" />
          </mxGeometry>
        </mxCell>
        <mxCell id="KuEMhPUWI6Ybn1n7uqaw-57" value="" style="endArrow=none;html=1;rounded=0;exitX=0.5;exitY=1;exitDx=0;exitDy=0;entryX=1;entryY=0.5;entryDx=0;entryDy=0;fillColor=#ffcccc;strokeColor=#36393d;" edge="1" parent="1" source="KuEMhPUWI6Ybn1n7uqaw-24" target="KuEMhPUWI6Ybn1n7uqaw-1">
          <mxGeometry relative="1" as="geometry">
            <mxPoint x="300" y="350" as="sourcePoint" />
            <mxPoint x="460" y="350" as="targetPoint" />
          </mxGeometry>
        </mxCell>
        <mxCell id="KuEMhPUWI6Ybn1n7uqaw-58" value="" style="endArrow=none;html=1;rounded=0;exitX=0.5;exitY=1;exitDx=0;exitDy=0;entryX=0.5;entryY=0;entryDx=0;entryDy=0;" edge="1" parent="1" source="KuEMhPUWI6Ybn1n7uqaw-21" target="KuEMhPUWI6Ybn1n7uqaw-3">
          <mxGeometry relative="1" as="geometry">
            <mxPoint x="300" y="350" as="sourcePoint" />
            <mxPoint x="460" y="350" as="targetPoint" />
          </mxGeometry>
        </mxCell>
        <mxCell id="KuEMhPUWI6Ybn1n7uqaw-59" value="" style="endArrow=none;html=1;rounded=0;exitX=0.5;exitY=1;exitDx=0;exitDy=0;entryX=0.5;entryY=0;entryDx=0;entryDy=0;" edge="1" parent="1" source="KuEMhPUWI6Ybn1n7uqaw-22" target="KuEMhPUWI6Ybn1n7uqaw-4">
          <mxGeometry relative="1" as="geometry">
            <mxPoint x="300" y="350" as="sourcePoint" />
            <mxPoint x="460" y="350" as="targetPoint" />
          </mxGeometry>
        </mxCell>
      </root>
    </mxGraphModel>
  </diagram>
</mxfile>
